<?xml version="1.0" encoding="UTF-8"?>
<svg id="Layer_2" data-name="Layer 2" xmlns="http://www.w3.org/2000/svg" xmlns:xlink="http://www.w3.org/1999/xlink" viewBox="0 0 149.04 90.64">
  <defs>
    <style>
      .cls-1 {
        fill: #fff;
      }

      .cls-2 {
        fill: #10192e;
      }

      .cls-3 {
        clip-path: url(#clippath-1);
      }

      .cls-4 {
        stroke: #10192e;
        stroke-miterlimit: 10;
        stroke-width: .5px;
      }

      .cls-4, .cls-5 {
        fill: none;
      }

      .cls-6 {
        fill: #f1e9e8;
      }

      .cls-7 {
        clip-path: url(#clippath);
      }
    </style>
    <clipPath id="clippath">
      <circle class="cls-5" cx="77.78" cy="37.45" r="37.45"/>
    </clipPath>
    <clipPath id="clippath-1">
      <rect class="cls-5" width="149.04" height="90.64"/>
    </clipPath>
  </defs>
  <g id="Layer_1-2" data-name="Layer 1">
    <g id="Group_18" data-name="Group 18">
      <g id="Group_15" data-name="Group 15">
        <g class="cls-7">
          <g id="Group_14" data-name="Group 14">
            <path id="Path_25" data-name="Path 25" class="cls-6" d="m115.23,37.45C115.23,16.77,98.47,0,77.78,0c-20.68,0-37.45,16.77-37.45,37.45s16.76,37.45,37.45,37.45c20.68,0,37.45-16.77,37.45-37.45h0"/>
            <path id="Path_26" data-name="Path 26" class="cls-2" d="m77.7,28.73c-.31,0-.57-.25-.57-.57,0-5.19,4.21-9.39,9.4-9.4h12.17c3.57,0,6.46-2.89,6.46-6.46s-2.89-6.46-6.46-6.46c-.31,0-.57-.25-.57-.57s.26-.57.57-.57h0c4.2,0,7.6,3.4,7.6,7.6s-3.4,7.6-7.6,7.6h-12.17c-4.56,0-8.26,3.7-8.26,8.26,0,.31-.25.57-.57.57"/>
            <path id="Path_27" data-name="Path 27" class="cls-1" d="m93,22.56c-3.72,0-7.24,1.65-9.61,4.51h-11.38c-4.42-5.32-12.32-6.05-17.64-1.62-5.32,4.42-6.05,12.32-1.62,17.64,4.42,5.32,12.32,6.05,17.64,1.62.54-.45,1.03-.93,1.49-1.46h11.65c4.51,5.24,12.41,5.83,17.65,1.32,5.24-4.51,5.83-12.41,1.32-17.65-2.38-2.76-5.84-4.35-9.49-4.35"/>
            <path id="Path_28" data-name="Path 28" class="cls-6" d="m102.13,35.08c0,5.04-4.09,9.12-9.12,9.12s-9.12-4.09-9.12-9.12,4.09-9.12,9.12-9.12,9.12,4.09,9.12,9.12h0"/>
            <path id="Path_29" data-name="Path 29" class="cls-2" d="m92.44,32.56c0-1.15-.93-2.08-2.08-2.08-1.15,0-2.08.93-2.08,2.08s.93,2.08,2.08,2.08,2.08-.93,2.08-2.08h0"/>
            <path id="Path_30" data-name="Path 30" class="cls-2" d="m97.74,32.56c0-1.15-.93-2.08-2.08-2.08-1.15,0-2.08.93-2.08,2.08s.93,2.08,2.08,2.08,2.08-.93,2.08-2.08h0"/>
            <path id="Path_31" data-name="Path 31" class="cls-2" d="m92.44,37.56c0-1.15-.93-2.08-2.08-2.08-1.15,0-2.08.93-2.08,2.08s.93,2.08,2.08,2.08,2.08-.93,2.08-2.08h0"/>
            <path id="Path_32" data-name="Path 32" class="cls-2" d="m97.74,37.56c0-1.15-.93-2.08-2.08-2.08-1.15,0-2.08.93-2.08,2.08s.93,2.08,2.08,2.08,2.08-.93,2.08-2.08h0"/>
            <path id="Path_33" data-name="Path 33" class="cls-6" d="m71.52,35.08c0,5.04-4.09,9.12-9.12,9.12s-9.12-4.09-9.12-9.12,4.09-9.12,9.12-9.12,9.12,4.09,9.12,9.12h0"/>
            <path id="Path_34" data-name="Path 34" class="cls-2" d="m67.21,33.68h-2.84c-.22,0-.4-.17-.4-.39h0s-.01-2.85-.01-2.85c0-.22-.18-.4-.4-.4h-2.34c-.22,0-.4.18-.4.4h0s0,2.85,0,2.85c0,.22-.18.4-.4.4h-2.85c-.22,0-.4.19-.4.41v2.34c0,.22.18.4.4.4h2.85c.22,0,.4.17.4.39h0s0,2.85,0,2.85c0,.22.18.4.4.4h2.34c.22,0,.4-.18.4-.4h0s0-2.85,0-2.85c0-.22.18-.4.4-.4h2.84c.22,0,.4-.19.4-.41h0v-2.34c0-.22-.18-.4-.4-.4h0"/>
            <path id="Path_35" data-name="Path 35" class="cls-6" d="m81.24,36.11h-3.09s-.07-.03-.07-.07v-.91s.03-.07.07-.07h3.09s.07.03.07.07v.91s-.03.07-.07.07"/>
            <path id="Path_36" data-name="Path 36" class="cls-6" d="m77.53,36.11h-3.09s-.07-.03-.07-.07v-.91s.03-.07.07-.07h3.09s.07.03.07.07v.91s-.03.07-.07.07"/>
            <path id="Rectangle_18" data-name="Rectangle 18" class="cls-4" d="m74.74,34.22h6.13c.75,0,1.35.6,1.35,1.35,0,0,0,0,0,0v.03c0,.75-.6,1.35-1.35,1.35h-6.13c-.75,0-1.35-.6-1.35-1.35v-.03c0-.75.6-1.35,1.35-1.35Z"/>
          </g>
        </g>
      </g>
      <g id="Group_17" data-name="Group 17">
        <g class="cls-3">
          <g id="Group_16" data-name="Group 16">
            <path id="Path_37" data-name="Path 37" class="cls-6" d="m39.5,51.53c-.32,0-.61-.2-.72-.51-.22-.62-.42-1.25-.61-1.89-.11-.4.12-.82.53-.94.4-.11.81.11.93.51.18.61.38,1.22.58,1.82.14.4-.07.83-.47.97-.08.03-.16.04-.25.04"/>
            <path id="Path_38" data-name="Path 38" class="cls-6" d="m38.08,46.37c-.36,0-.67-.25-.74-.61-2.5-12.23.66-24.94,8.59-34.57.27-.32.75-.37,1.07-.1.32.27.37.75.1,1.07-7.64,9.28-10.68,21.52-8.27,33.3.09.41-.18.81-.59.9,0,0,0,0,0,0-.05.01-.1.02-.15.02"/>
            <path id="Path_39" data-name="Path 39" class="cls-6" d="m115.68,23.82c-.32,0-.6-.2-.71-.49-3.48-9.17-10.23-16.72-18.94-21.22-.37-.19-.52-.65-.32-1.02.19-.37.65-.52,1.02-.32,9.05,4.67,16.05,12.51,19.66,22.03.15.39-.05.83-.44.98-.09.03-.18.05-.27.05"/>
            <path id="Path_40" data-name="Path 40" class="cls-6" d="m6.97,58.63l3.78-2.93,8.75-.29,2.13,2.74-1.74,5.98-5.84.2.91-2.84-3.04.1-3.19,11.71,2.87-.1.74-2.87-1.37.05.82-2.94,7.38-.25-2.42,8.87-3.78,2.97-8.98.3-2.09-2.77,5.08-17.92Z"/>
            <path id="Path_41" data-name="Path 41" class="cls-6" d="m3.99,81.22c-.6,0-1.16-.28-1.51-.75l-2.09-2.77c-.36-.47-.47-1.09-.31-1.66l5.08-17.92c.11-.39.34-.73.66-.98l3.78-2.93c.32-.25.7-.39,1.1-.4l8.75-.29c.61-.02,1.19.25,1.56.73l2.13,2.74c.38.48.5,1.11.33,1.7l-1.74,5.98c-.17.57-.59,1.04-1.15,1.25.03.04.07.07.1.11.37.47.5,1.1.34,1.68l-2.42,8.87c-.11.39-.34.74-.66.99l-3.78,2.97c-.32.25-.71.39-1.11.4l-8.98.3h-.07m0-5.06l.93,1.23,7.38-.25,2.8-2.2,1.58-5.78-2.74.09c.3.45.4,1.01.26,1.54l-.74,2.87c-.21.81-.93,1.39-1.77,1.42l-2.87.1c-.6.02-1.18-.24-1.55-.72-.37-.47-.5-1.1-.34-1.68l3.19-11.71c.22-.8.94-1.37,1.77-1.4l3.04-.1c.62-.03,1.21.26,1.58.75.37.49.48,1.14.29,1.72l-.09.27,1.78-.06,1.08-3.72-.94-1.21-7.17.24-2.8,2.17-4.65,16.41Z"/>
            <path id="Path_42" data-name="Path 42" class="cls-6" d="m18.99,78.82l5.82-20.75,3.98-2.97,8.75-.29,2.09,2.77-5.85,20.76-5.88.2,1.7-5.97-3.04.1-1.7,5.97-5.88.2Zm13.81-17.95l-2.84.1-1.7,5.94,3.04-.1,1.5-5.94Z"/>
            <path id="Path_43" data-name="Path 43" class="cls-6" d="m18.98,80.72c-1.05,0-1.9-.85-1.9-1.9,0-.17.02-.34.07-.51l5.82-20.75c.11-.4.36-.76.69-1.01l3.98-2.97c.31-.23.68-.36,1.07-.38l8.75-.29c.62-.02,1.21.26,1.58.75l2.09,2.77c.36.47.47,1.09.31,1.66l-5.85,20.75c-.22.79-.94,1.35-1.76,1.38l-5.88.2c-.6.03-1.17-.24-1.54-.71-.34.49-.9.79-1.49.81l-5.88.2h-.06m7.47-21.52l-4.94,17.64,1.9-.06,1.32-4.64c.23-.79.94-1.35,1.76-1.38l3.04-.1c.61-.03,1.19.25,1.56.73.37.48.5,1.11.33,1.69l-.99,3.47,1.89-.06,5.22-18.51-.93-1.23-7.17.24-2.99,2.23Zm1.8,9.61c-1.05,0-1.9-.85-1.9-1.9,0-.18.02-.35.07-.52l1.7-5.94c.23-.79.94-1.35,1.76-1.38l2.84-.1c.6-.03,1.17.24,1.54.71.37.46.51,1.08.36,1.66l-1.5,5.93c-.21.82-.93,1.4-1.78,1.43l-3.04.1h-.06"/>
            <path id="Path_44" data-name="Path 44" class="cls-6" d="m42.8,57.46l3.78-2.97,5.91-.2,2.09,2.77,3.78-2.97,5.91-.2,2.1,2.77-5.85,20.76-5.88.2,5.1-17.69-3.04.1-5.1,17.69-5.91.2,5.1-17.69-2.84.1-5.1,17.69-5.88.2,5.82-20.76Z"/>
            <path id="Path_45" data-name="Path 45" class="cls-6" d="m36.98,80.11c-1.05,0-1.9-.85-1.9-1.9,0-.17.02-.34.07-.51l5.82-20.75c.11-.39.34-.73.66-.98l3.78-2.97c.32-.25.71-.39,1.11-.4l5.91-.2c.62-.03,1.21.25,1.58.75l.93,1.23,2.26-1.77c.32-.25.71-.39,1.11-.4l5.91-.2c.62-.03,1.21.25,1.58.75l2.1,2.77c.36.47.47,1.09.31,1.66l-5.85,20.76c-.22.79-.94,1.35-1.76,1.38l-5.88.2c-.6.03-1.18-.24-1.55-.71-.34.49-.9.79-1.49.81l-5.91.2c-.54.02-1.07-.19-1.44-.59-.35.42-.86.67-1.4.69l-5.88.2h-.06m7.48-21.54l-4.95,17.66,1.91-.06,4.71-16.36c.23-.79.94-1.34,1.76-1.37l2.84-.1c.61-.02,1.19.25,1.56.73.37.48.49,1.11.33,1.69l-4.37,15.18,1.92-.07,4.71-16.36c.07-.24.18-.46.34-.65-.28.1-.58.13-.87.09-.5-.07-.96-.33-1.27-.74l-1.5-1.98-4.31.14-2.81,2.21Zm15.28-.54c1.05,0,1.9.85,1.9,1.9,0,.18-.03.35-.07.52l-4.37,15.18,1.88-.06,5.22-18.51-.93-1.23-4.31.14-2.84,2.23c.14-.04.28-.06.42-.06l3.04-.1h.06"/>
            <path id="Path_46" data-name="Path 46" class="cls-6" d="m80.15,70.88l-1.7,5.94-11.79.4-2.09-2.77,5.11-17.89,3.75-2.97,11.79-.4-1.67,5.94-8.75.29-.95,2.91,8.95-.3-1.7,5.94-8.95.3-.75,2.9,8.75-.29Z"/>
            <path id="Path_47" data-name="Path 47" class="cls-6" d="m66.66,79.11c-.6,0-1.16-.28-1.52-.75l-2.09-2.77c-.36-.48-.47-1.09-.31-1.67l5.11-17.89c.11-.38.34-.72.65-.97l3.75-2.97c.32-.25.71-.4,1.11-.41l11.79-.4c.61-.03,1.19.24,1.56.73.37.48.5,1.1.33,1.68l-1.67,5.94c-.97.42-1.41,1.55-.98,2.51.06.14.14.27.23.4l-1.7,5.94c-1,.33-1.53,1.41-1.2,2.4.06.18.15.35.26.5l-1.7,5.94c-.23.79-.94,1.35-1.76,1.38l-11.79.4h-.07m0-5.06l.93,1.23,9.42-.32.6-2.11-6.14.21c-1.05.03-1.93-.79-1.96-1.84,0-.18.01-.36.06-.53l.75-2.9c.21-.82.93-1.39,1.77-1.42l7.57-.25.6-2.11-6.34.21c-.62.03-1.21-.26-1.58-.76-.37-.49-.48-1.14-.29-1.73l.95-2.91c.25-.76.94-1.28,1.74-1.31l7.36-.25.59-2.1-8.57.29-2.78,2.2-4.68,16.39Z"/>
            <path id="Path_48" data-name="Path 48" class="cls-6" d="m102.74,61.36l2.65-8.85,5.88-.2-6.76,23.63-5.91.2,2.45-8.84-2.84.1-2.61,8.85-5.91.2,6.8-23.63,5.88-.2-2.45,8.84,2.83-.1Z"/>
            <path id="Path_49" data-name="Path 49" class="cls-6" d="m89.67,78.34c-1.05,0-1.9-.85-1.9-1.9,0-.18.02-.35.07-.52l6.8-23.63c.23-.79.94-1.34,1.76-1.37l5.88-.2c.6-.02,1.17.24,1.54.71.34-.49.9-.79,1.49-.81l5.88-.2c.61-.02,1.19.25,1.56.73.37.48.49,1.11.33,1.69l-6.76,23.63c-.23.79-.94,1.35-1.76,1.38l-5.91.2c-.59.02-1.16-.23-1.53-.69-.34.48-.89.77-1.48.79l-5.91.2h-.06m8.24-23.67l-5.69,19.79,1.93-.07,2.23-7.53c.23-.78.94-1.33,1.76-1.36l2.84-.1c1.05-.03,1.93.79,1.96,1.84,0,.19-.02.38-.07.56l-1.76,6.35,1.95-.07,5.67-19.79-1.91.06-2.26,7.54c-.23.78-.94,1.33-1.76,1.35l-2.84.1c-.61.03-1.19-.24-1.55-.72-.37-.47-.5-1.1-.34-1.68l1.76-6.35-1.92.07Z"/>
            <path id="Path_50" data-name="Path 50" class="cls-6" d="m118.35,69.6l5.06-17.69,5.91-.2-6.02,20.76-3.82,2.97-8.72.29-2.16-2.77,5.85-20.75,5.91-.2-5.06,17.69,3.04-.1Z"/>
            <path id="Path_51" data-name="Path 51" class="cls-6" d="m110.77,77.63c-.59,0-1.14-.27-1.5-.73l-2.16-2.77c-.37-.48-.49-1.1-.33-1.68l5.85-20.75c.22-.79.94-1.35,1.76-1.38l5.91-.2c.6-.03,1.17.24,1.54.71.34-.49.9-.79,1.49-.81l5.91-.2c.61-.02,1.19.25,1.56.73.37.48.49,1.11.33,1.69l-6.01,20.76c-.11.38-.34.72-.66.97l-3.82,2.97c-.32.25-.7.39-1.1.4l-8.72.29h-.06m-.07-5.08l.97,1.25,7.13-.24,2.84-2.21,5.12-17.65-1.91.06-4.68,16.36c-.23.79-.94,1.35-1.76,1.38l-3.04.1c-1.05.03-1.93-.79-1.96-1.84,0-.2.02-.39.07-.58l4.34-15.18-1.92.07-5.21,18.49Z"/>
            <path id="Path_52" data-name="Path 52" class="cls-6" d="m126.5,75.21l6.76-23.63,11.79-.4,2.09,2.77-1.67,5.97-3.83,3.17,2.09,2.77-1.7,5.97-3.75,2.97-11.79.4Zm11.36-9.14l-2.84.1-.95,2.91,3.04-.1.75-2.91Zm-1.17-5.85l2.87-.1.95-2.91-3.07.1-.75,2.91Z"/>
            <path id="Path_53" data-name="Path 53" class="cls-6" d="m126.5,77.1c-1.05,0-1.9-.85-1.9-1.9,0-.18.02-.35.07-.52l6.76-23.63c.23-.79.94-1.35,1.76-1.38l11.79-.4c.62-.03,1.21.26,1.58.75l2.09,2.77c.36.47.47,1.08.31,1.65l-1.67,5.97c-.1.37-.32.7-.62.95l-2.43,2.01,1,1.32c.36.48.47,1.09.31,1.67l-1.7,5.97c-.11.38-.34.72-.65.97l-3.75,2.97c-.32.25-.71.4-1.11.41l-11.79.4h-.06m8.21-23.67l-5.67,19.79,8.56-.29,2.78-2.2,1.28-4.48-1.52-2.02c.64-.03,1.13-.57,1.11-1.2-.03-.64-.57-1.13-1.2-1.11-.14,0-.28.04-.4.09l-2.87.1c-.6.02-1.17-.24-1.55-.71-.37-.47-.51-1.08-.36-1.66l.75-2.9c.21-.82.93-1.39,1.77-1.42l3.07-.1c.62-.03,1.21.25,1.58.76.37.49.48,1.14.29,1.73l-.95,2.91c-.02.08-.05.15-.09.22l2.53-2.09,1.26-4.5-.93-1.23-9.43.31Zm-.63,17.54c-1.05,0-1.9-.86-1.89-1.91,0-.2.03-.39.09-.58l.95-2.91c.25-.76.94-1.28,1.74-1.31l2.84-.1c.6-.02,1.17.24,1.54.71.37.47.51,1.08.36,1.66l-.75,2.9c-.21.82-.93,1.39-1.77,1.42l-3.04.1h-.06"/>
            <path id="Path_54" data-name="Path 54" class="cls-2" d="m6.69,58.18l3.78-2.93,8.75-.29,2.13,2.74-1.74,5.98-5.84.2.91-2.84-3.04.1-3.19,11.71,2.87-.1.74-2.86-1.37.05.82-2.94,7.38-.25-2.41,8.87-3.78,2.97-8.98.3-2.09-2.77,5.08-17.92Z"/>
            <path id="Path_55" data-name="Path 55" class="cls-2" d="m18.7,78.37l5.82-20.75,3.98-2.98,8.75-.29,2.09,2.77-5.85,20.75-5.88.2,1.7-5.97-3.04.1-1.7,5.97-5.88.2Zm13.81-17.95l-2.84.1-1.7,5.94,3.04-.1,1.5-5.94Z"/>
            <path id="Path_56" data-name="Path 56" class="cls-2" d="m42.52,57.01l3.78-2.97,5.91-.2,2.09,2.77,3.78-2.97,5.91-.2,2.09,2.77-5.85,20.75-5.88.2,5.1-17.69-3.04.1-5.1,17.69-5.91.2,5.1-17.69-2.84.1-5.1,17.69-5.88.2,5.81-20.76Z"/>
            <path id="Path_57" data-name="Path 57" class="cls-2" d="m79.87,70.43l-1.7,5.94-11.79.4-2.09-2.77,5.11-17.89,3.75-2.97,11.79-.4-1.67,5.94-8.75.29-.95,2.91,8.95-.3-1.7,5.94-8.95.3-.75,2.9,8.75-.3Z"/>
            <path id="Path_58" data-name="Path 58" class="cls-2" d="m102.45,60.92l2.65-8.85,5.88-.2-6.76,23.63-5.91.2,2.45-8.84-2.84.1-2.61,8.85-5.91.2,6.8-23.63,5.88-.2-2.45,8.84,2.83-.1Z"/>
            <path id="Path_59" data-name="Path 59" class="cls-2" d="m118.07,69.15l5.06-17.69,5.91-.2-6.02,20.76-3.82,2.97-8.72.29-2.16-2.77,5.85-20.76,5.91-.2-5.06,17.69,3.04-.1Z"/>
            <path id="Path_60" data-name="Path 60" class="cls-2" d="m126.22,74.76l6.76-23.63,11.79-.4,2.09,2.77-1.67,5.97-3.83,3.17,2.09,2.77-1.7,5.97-3.75,2.97-11.79.4Zm11.36-9.14l-2.84.1-.95,2.9,3.04-.1.75-2.9Zm-1.17-5.84l2.87-.1.95-2.91-3.07.1-.75,2.91Z"/>
            <path id="Path_61" data-name="Path 61" class="cls-6" d="m29.03,84.03l-2.4.08.25-.96,2.41-.08,1.01-.03,2.39-.08-.25.96-2.4.08-1.65,6.61-1.01.03,1.65-6.61Z"/>
            <path id="Path_62" data-name="Path 62" class="cls-6" d="m33.65,82.41l.95-.03-.95,3.8h.02c.21-.29.48-.52.79-.68.33-.18.7-.28,1.08-.29.22-.01.45.02.66.09.19.06.36.17.49.33.13.17.22.38.24.59.03.29,0,.59-.08.87l-.81,3.26-.95.03.75-2.99c.05-.2.07-.4.05-.6-.01-.14-.06-.28-.14-.4-.08-.1-.19-.17-.31-.21-.13-.04-.27-.06-.41-.05-.2,0-.39.05-.58.11-.19.07-.37.18-.52.32-.17.16-.31.34-.42.54-.13.24-.23.5-.3.76l-.65,2.61-.95.03,2.03-8.09Z"/>
            <path id="Path_63" data-name="Path 63" class="cls-6" d="m38.73,88.09c-.05.2-.05.4,0,.6.05.17.13.33.26.45.13.13.29.22.46.28.2.07.4.09.61.09.29,0,.57-.09.82-.23.27-.16.52-.35.74-.57l.57.53c-.64.68-1.53,1.08-2.47,1.11-.35.02-.69-.04-1.02-.17-.27-.11-.5-.3-.67-.53-.17-.25-.27-.53-.3-.83-.04-.35,0-.71.09-1.05.09-.38.25-.73.46-1.06.21-.32.46-.61.75-.86.29-.24.61-.44.96-.59.34-.14.71-.23,1.08-.24.37-.03.73.04,1.06.2.25.13.46.34.6.59.14.26.21.55.21.84,0,.32-.03.65-.11.96l-.09.34-4.02.13Zm3.21-.87c.04-.19.06-.39.05-.58-.01-.16-.06-.32-.15-.46-.09-.13-.22-.24-.37-.3-.19-.07-.4-.1-.6-.09-.23,0-.46.06-.67.16-.21.09-.41.22-.59.36-.17.14-.32.3-.44.49-.11.16-.19.34-.24.52l3.01-.1Z"/>
            <path id="Path_64" data-name="Path 64" class="cls-6" d="m50.7,89.85l-.95.03.19-.78h-.02c-.21.29-.48.52-.79.68-.33.18-.7.28-1.08.29-.23.01-.45-.02-.67-.09-.19-.06-.36-.18-.49-.33-.13-.17-.22-.38-.24-.59-.03-.29,0-.58.07-.87l.82-3.26.95-.03-.75,2.99c-.06.19-.08.4-.06.6.01.14.06.28.15.4.08.1.19.17.31.21.13.04.27.06.41.05.4-.02.79-.17,1.09-.43.37-.35.63-.8.73-1.3l.65-2.61.95-.03-1.27,5.06Z"/>
            <path id="Path_65" data-name="Path 65" class="cls-6" d="m53.4,84.73l.95-.03-.19.78h.02c.21-.29.48-.52.79-.68.33-.18.7-.28,1.08-.29.22-.01.45.02.66.09.19.06.36.17.49.33.13.17.22.38.24.59.03.29,0,.59-.08.87l-.81,3.26-.95.03.75-2.99c.05-.2.07-.4.05-.6-.01-.14-.06-.28-.14-.4-.08-.1-.19-.17-.31-.21-.13-.04-.27-.06-.41-.05-.2,0-.39.05-.58.11-.19.07-.37.18-.52.32-.17.16-.31.34-.42.54-.13.24-.23.5-.3.76l-.65,2.61-.95.03,1.27-5.07Z"/>
            <path id="Path_66" data-name="Path 66" class="cls-6" d="m59.33,84.53l.95-.03-1.27,5.07-.95.03,1.27-5.07Zm.24-1.81c.05-.2.17-.37.33-.5.15-.13.34-.21.54-.22.17-.02.34.06.44.19.1.14.14.32.08.49-.05.2-.17.37-.33.5-.15.13-.34.21-.54.22-.17.02-.34-.06-.44-.19-.11-.14-.14-.32-.08-.49"/>
            <path id="Path_67" data-name="Path 67" class="cls-6" d="m61.19,84.47l1.1-.04.52,3.83,2.41-3.93,1.01-.03-3.23,5.13-1.04.03-.77-5Z"/>
            <path id="Path_68" data-name="Path 68" class="cls-6" d="m67.04,87.14c-.05.2-.05.4,0,.6.05.17.14.33.26.45.13.13.29.22.46.28.2.07.4.09.61.09.29,0,.57-.09.82-.23.27-.16.52-.35.74-.57l.57.53c-.64.68-1.53,1.08-2.47,1.11-.35.02-.69-.04-1.02-.17-.27-.11-.5-.3-.67-.53-.17-.25-.27-.53-.3-.83-.04-.35,0-.71.09-1.05.09-.38.25-.73.46-1.06.21-.32.46-.61.75-.86.29-.24.61-.44.96-.59.34-.14.71-.23,1.08-.24.37-.03.73.04,1.07.2.25.13.46.34.6.59.14.26.21.55.21.84,0,.32-.03.65-.11.96l-.09.34-4.02.13Zm3.21-.87c.04-.19.06-.39.04-.58-.01-.16-.06-.32-.15-.46-.09-.13-.22-.24-.37-.29-.19-.07-.4-.1-.6-.09-.23,0-.46.06-.67.16-.21.09-.41.22-.59.36-.17.14-.32.3-.44.49-.11.16-.19.34-.24.52l3.01-.1Z"/>
            <path id="Path_69" data-name="Path 69" class="cls-6" d="m72.92,84.07l.95-.03-.19.78h.02c.2-.28.46-.51.77-.68.29-.17.62-.27.96-.28.14,0,.27,0,.4.05l-.31,1.04c-.08-.02-.15-.03-.22-.04-.07-.01-.15-.02-.22-.01-.43,0-.84.15-1.16.43-.35.34-.58.77-.68,1.24l-.64,2.54-.95.03,1.27-5.07Z"/>
            <path id="Path_70" data-name="Path 70" class="cls-6" d="m79.15,85.12c-.08-.14-.19-.26-.32-.34-.17-.1-.37-.14-.57-.12-.22,0-.43.06-.62.16-.18.08-.3.24-.35.43-.04.12-.02.25.05.36.07.09.17.17.28.21.12.05.25.09.38.11l.36.06c.18.04.36.09.53.16.15.06.29.15.4.26.1.11.17.25.2.41.03.2.02.4-.04.59-.07.27-.19.52-.36.74-.16.2-.36.38-.59.51-.22.13-.47.24-.72.3-.25.06-.5.1-.75.11-.35.02-.71-.03-1.04-.16-.3-.14-.53-.38-.66-.68l.86-.62c.12.15.26.29.42.4.2.12.43.18.66.16.25,0,.5-.07.73-.18.22-.09.38-.27.45-.5.04-.12.03-.24-.04-.35-.07-.09-.16-.16-.26-.21-.12-.05-.24-.09-.37-.11-.13-.03-.25-.05-.35-.07-.18-.04-.36-.09-.54-.15-.16-.05-.3-.13-.43-.24-.12-.11-.2-.25-.23-.4-.04-.2-.03-.41.03-.6.06-.26.17-.49.34-.7.16-.2.34-.37.55-.5.21-.14.44-.24.69-.31.23-.07.47-.11.72-.12.32-.02.63.04.92.16.27.11.48.34.58.62l-.89.6Z"/>
            <path id="Path_71" data-name="Path 71" class="cls-6" d="m81.48,86.65c-.05.2-.05.4,0,.6.05.17.14.33.26.45.13.13.29.22.46.28.2.07.4.1.61.09.29,0,.57-.09.82-.23.27-.16.51-.35.73-.57l.57.53c-.64.68-1.53,1.08-2.47,1.11-.35.02-.69-.04-1.02-.17-.27-.11-.5-.3-.67-.53-.17-.25-.27-.53-.3-.83-.04-.35,0-.71.09-1.05.09-.38.25-.73.46-1.06.21-.32.46-.61.75-.86.29-.24.61-.44.96-.59.34-.14.71-.23,1.08-.24.37-.03.73.04,1.06.2.25.13.46.34.6.59.14.26.21.55.21.84,0,.32-.03.65-.11.96l-.09.34-4.01.13Zm3.21-.87c.04-.19.06-.39.04-.59-.01-.16-.06-.32-.15-.46-.09-.13-.22-.24-.37-.29-.19-.07-.4-.1-.6-.09-.23,0-.46.06-.67.16-.21.09-.41.22-.59.36-.17.14-.32.3-.44.49-.11.16-.19.34-.24.52l3.01-.1Z"/>
            <path id="Path_72" data-name="Path 72" class="cls-6" d="m89.41,86.03c.09-.37.25-.73.47-1.04.22-.32.48-.61.78-.86.3-.25.63-.45.99-.6.35-.15.72-.23,1.09-.24.34-.02.68.04.99.17.28.12.52.31.7.54.18.24.3.53.35.83.05.34.04.69-.05,1.03-.1.37-.26.73-.47,1.05-.21.33-.47.62-.78.86-.3.25-.63.45-.99.6-.35.15-.72.23-1.09.24-.34.02-.68-.04-.99-.17-.28-.12-.52-.3-.7-.54-.18-.24-.3-.53-.35-.83-.06-.35-.04-.7.06-1.03m1.01-.03c-.06.23-.08.47-.07.71.01.19.08.38.18.54.11.15.26.27.43.35.21.09.43.12.65.11.25,0,.49-.06.72-.16.22-.09.42-.22.6-.38.18-.16.34-.36.47-.57.14-.22.24-.46.3-.72.06-.23.08-.47.07-.71-.01-.2-.08-.38-.19-.54-.11-.15-.26-.27-.43-.35-.2-.09-.43-.12-.65-.11-.25,0-.49.06-.72.16-.22.09-.43.22-.61.38-.19.16-.34.35-.47.57-.13.22-.23.46-.29.72"/>
            <path id="Path_73" data-name="Path 73" class="cls-6" d="m96.71,84.09l-1.08.04.21-.83,1.08-.04.29-1.13c.12-.57.38-1.09.76-1.53.39-.36.91-.56,1.44-.54.1,0,.21,0,.33,0,.12,0,.24.02.35.05l-.32.86c-.08-.03-.16-.05-.24-.07-.09-.01-.18-.02-.27-.01-.15,0-.3.03-.44.09-.12.06-.22.14-.3.24-.08.11-.15.23-.2.36-.06.16-.11.32-.15.48l-.29,1.16,1.13-.03-.21.83-1.14.04-1.05,4.23-.95.03,1.05-4.23Z"/>
            <path id="Path_74" data-name="Path 74" class="cls-6" d="m106.74,87.91c-.29,1.14-1.12,2.06-2.22,2.47-.78.28-1.64.31-2.43.07-.37-.13-.71-.36-.96-.67l.84-.83c.16.25.39.45.65.59.29.14.61.2.93.18.31,0,.62-.07.91-.18.24-.1.46-.24.65-.42.17-.16.32-.36.43-.57.1-.2.19-.42.25-.64l.18-.75h-.03c-.25.3-.56.54-.91.7-.33.15-.68.24-1.04.25-.33.02-.66-.04-.97-.16-.27-.11-.5-.29-.67-.52-.17-.24-.28-.51-.32-.8-.05-.34-.02-.69.07-1.03.09-.37.24-.72.44-1.05.2-.32.44-.61.72-.87.28-.25.6-.45.94-.59.35-.15.72-.23,1.1-.24.32-.01.64.05.93.19.27.12.48.34.6.6h.02l.18-.73.95-.03-1.25,5.03Zm-1.53-4.17c-.25,0-.49.06-.72.16-.22.09-.43.22-.61.38-.19.16-.34.35-.47.57-.13.22-.23.46-.29.72-.15.4-.1.85.12,1.22.26.32.68.48,1.09.42.48,0,.95-.19,1.32-.51.38-.33.64-.76.76-1.25.06-.23.08-.47.06-.71-.01-.2-.08-.38-.19-.54-.11-.15-.26-.27-.43-.35-.2-.09-.43-.12-.65-.11"/>
            <path id="Path_75" data-name="Path 75" class="cls-6" d="m109.3,83.46c.32-.25.68-.45,1.07-.59.35-.13.72-.21,1.1-.22.31-.02.62.02.91.11.21.07.41.19.56.35.13.15.21.33.23.53.03.21.01.43-.04.63l-.65,2.59c-.05.18-.09.34-.12.49-.03.15-.05.29-.07.43l-.84.03c.02-.13.04-.26.07-.38.03-.13.05-.26.09-.39h-.02c-.25.3-.57.55-.93.72-.33.15-.69.23-1.05.24-.21,0-.43-.02-.64-.07-.18-.05-.34-.14-.48-.27-.13-.13-.22-.29-.26-.46-.04-.22-.04-.44.03-.65.07-.31.21-.59.42-.83.21-.23.45-.42.73-.56.3-.15.62-.26.95-.33.36-.07.72-.12,1.09-.13l.7-.02.06-.21c.04-.12.04-.25.03-.38-.02-.12-.06-.24-.14-.34-.08-.11-.19-.19-.31-.23-.16-.06-.33-.08-.51-.07-.17,0-.34.03-.5.07-.14.04-.27.09-.41.15-.12.06-.24.12-.35.2-.11.07-.22.15-.32.21l-.42-.58Zm2.17,1.92c-.23,0-.47.03-.7.06-.23.03-.46.09-.68.17-.2.07-.39.18-.55.32-.15.13-.26.3-.31.5-.08.29-.03.5.13.62.22.14.48.2.74.17.24,0,.48-.06.7-.16.19-.09.37-.21.52-.36.15-.14.27-.3.37-.48.09-.16.16-.34.2-.52l.09-.32h-.51Z"/>
            <path id="Path_76" data-name="Path 76" class="cls-6" d="m114.9,82.65l.89-.03-.19.79h.02c.07-.1.14-.19.23-.27.12-.12.26-.23.41-.32.17-.1.36-.19.55-.26.2-.07.42-.12.64-.12.61-.1,1.19.29,1.32.89.23-.31.53-.56.87-.73.29-.16.62-.25.95-.27.31-.03.62.03.9.16.2.11.36.28.45.49.09.22.12.47.11.71-.01.28-.06.56-.13.83l-.72,2.95-.95.03.71-2.82c.05-.18.08-.37.1-.55.02-.16,0-.31-.04-.47-.04-.13-.13-.24-.24-.32-.16-.08-.35-.12-.53-.1-.41,0-.8.16-1.09.46-.28.32-.48.7-.57,1.11l-.69,2.77-.95.03.66-2.65c.06-.22.1-.44.13-.66.03-.17.02-.35-.02-.51-.03-.14-.11-.25-.23-.33-.16-.09-.34-.12-.52-.1-.18,0-.35.05-.52.12-.18.08-.35.18-.49.32-.16.15-.3.33-.41.53-.13.23-.23.49-.29.75l-.66,2.63-.95.03,1.27-5.08Z"/>
            <path id="Path_77" data-name="Path 77" class="cls-6" d="m123.86,85.21c-.05.2-.05.4,0,.6.05.17.13.33.26.45.13.13.29.22.46.28.2.07.4.09.61.09.29,0,.57-.09.82-.23.27-.16.52-.35.74-.57l.57.53c-.64.68-1.53,1.08-2.47,1.11-.35.02-.69-.04-1.02-.17-.27-.11-.5-.3-.67-.53-.17-.25-.27-.53-.31-.83-.04-.35,0-.71.09-1.05.09-.38.25-.73.46-1.06.21-.32.46-.61.75-.86.29-.24.61-.44.96-.59.34-.14.71-.23,1.08-.24.37-.03.73.04,1.06.2.25.13.46.34.6.59.14.26.21.55.21.84,0,.32-.03.65-.11.96l-.09.34-4.02.13Zm3.21-.87c.04-.19.06-.39.05-.58-.01-.16-.06-.32-.15-.46-.09-.13-.22-.24-.37-.29-.19-.07-.4-.1-.6-.09-.23,0-.46.06-.67.16-.21.09-.41.22-.59.36-.17.14-.32.3-.44.49-.11.16-.19.34-.24.52l3.01-.1Z"/>
            <path id="Path_78" data-name="Path 78" class="cls-6" d="m132.07,83.34c-.08-.14-.19-.26-.32-.34-.17-.1-.37-.14-.57-.12-.22,0-.43.06-.62.16-.18.08-.3.24-.35.43-.04.12-.02.25.05.36.07.09.17.17.28.21.12.05.25.09.38.11l.36.06c.18.04.36.09.53.16.15.06.29.15.4.26.1.11.17.25.2.41.03.2.02.4-.04.59-.07.27-.19.52-.36.74-.16.2-.36.38-.59.51-.22.13-.47.24-.72.3-.25.06-.5.1-.75.11-.35.02-.71-.03-1.04-.16-.3-.14-.53-.38-.66-.68l.86-.62c.12.15.26.29.42.4.2.12.43.18.66.16.25,0,.5-.07.73-.18.22-.09.38-.27.45-.5.04-.12.03-.24-.04-.35-.07-.09-.16-.16-.26-.21-.12-.05-.24-.09-.37-.11l-.35-.07c-.18-.04-.36-.09-.54-.15-.16-.05-.3-.13-.43-.24-.12-.1-.2-.24-.23-.4-.04-.2-.03-.41.03-.6.06-.26.17-.49.34-.7.16-.2.34-.37.56-.5.21-.14.44-.24.69-.31.23-.07.47-.11.72-.12.32-.02.63.04.92.16.27.11.48.34.58.62l-.89.6Z"/>
            <path id="Path_79" data-name="Path 79" class="cls-6" d="m2,84.09c-.25,0-.46-.11-.47-.25s.2-.26.46-.27l23.2-.42c.26,0,.48.11.49.25s-.2.26-.46.27l-23.2.42h-.02"/>
          </g>
        </g>
      </g>
    </g>
  </g>
</svg>