<?xml version="1.0" encoding="UTF-8"?>
<svg id="Layer_2" data-name="Layer 2" xmlns="http://www.w3.org/2000/svg" xmlns:xlink="http://www.w3.org/1999/xlink" viewBox="0 0 31 31">
  <defs>
    <style>
      .cls-1 {
        fill: #f4eded;
      }

      .cls-2 {
        stroke: #f4eded;
        stroke-miterlimit: 10;
        stroke-width: 1.74px;
      }

      .cls-2, .cls-3 {
        fill: none;
      }

      .cls-4 {
        clip-path: url(#clippath);
      }
    </style>
    <clipPath id="clippath">
      <rect class="cls-3" width="31" height="31"/>
    </clipPath>
  </defs>
  <g id="Layer_1-2" data-name="Layer 1">
    <g class="cls-4">
      <g id="Mask_Group_8" data-name="Mask Group 8">
        <g id="_ÎÓÈ_1-3" data-name=" ÎÓÈ 1-3">
          <rect id="Rectangle_28" data-name="Rectangle 28" class="cls-2" x=".9" y=".71" width="29.33" height="29.33" rx="6.22" ry="6.22"/>
          <path id="Path_83" data-name="Path 83" class="cls-1" d="m11.77,24.53c7.05.05,12.81-5.63,12.86-12.69,0-.06,0-.12,0-.17,0-.2,0-.39-.01-.58.88-.64,1.65-1.43,2.25-2.34-.82.36-1.7.6-2.59.71.95-.56,1.65-1.45,1.99-2.5-.89.53-1.86.9-2.87,1.1-1.71-1.82-4.57-1.91-6.39-.21-.91.85-1.43,2.05-1.43,3.3,0,.35.04.69.12,1.03-3.63-.18-7.02-1.9-9.32-4.72-1.2,2.07-.59,4.71,1.4,6.03-.72-.02-1.42-.22-2.05-.57v.06c0,2.15,1.52,4,3.62,4.43-.39.11-.79.16-1.19.16-.29,0-.57-.03-.85-.08.59,1.84,2.29,3.1,4.22,3.14-1.6,1.26-3.58,1.94-5.61,1.93-.36,0-.72-.02-1.08-.06,2.07,1.33,4.47,2.03,6.93,2.03"/>
        </g>
      </g>
    </g>
  </g>
</svg>